<?xml version="1.0" encoding="utf-8"?>
<!-- Generator: Adobe Illustrator 17.1.0, SVG Export Plug-In . SVG Version: 6.00 Build 0)  -->
<!DOCTYPE svg PUBLIC "-//W3C//DTD SVG 1.1//EN" "http://www.w3.org/Graphics/SVG/1.1/DTD/svg11.dtd">
<svg version="1.1" id="Vrstva_1" xmlns="http://www.w3.org/2000/svg" xmlns:xlink="http://www.w3.org/1999/xlink" x="0px" y="0px"
	 viewBox="0 0 64.3 64" enable-background="new 0 0 64.3 64" xml:space="preserve">
<g>
	<path fill="#934340" d="M0,23c0-6.3,0-12.7,0-19c0.3-0.3,0.7-0.6,1-0.9c1.5-0.7,2.8-0.5,3.9,0.7c1,1.9,1.8,3.9,1.6,6.1
		c-0.4,5.1-0.3,10.2,0,15.3c0.1,1.6,0.2,3.4-1.7,4.3c-2,0.9-3.5-0.1-4.8-1.5c0-0.7,0-1.3,0-2C0.8,25,1,24,0,23z"/>
	<path fill="#934541" d="M49,0c3.7,0,7.3,0,11,0c1.9,0.8,3.2,2.1,4,4c0,3.3,0,6.7,0,10c-1.9,2.1-3.3,5.8-6.9,2.2
		c-1.1-2.4-0.3-5-0.7-7.4c-0.1-1.6-1.1-2.7-2.1-3.8c-1.1-1.1-2.6-1.2-4-1.6C48.7,2.8,47.7,1.8,49,0z"/>
	<path fill="#8E413D" d="M18,0c1.3,0,2.7,0,4,0c2.2,1.2,3.7,3.1,4.8,5.3c0.1,0.8,0,1.5-0.5,2.2c-0.6,0.6-1.3,0.9-2.1,0.9
		c-0.8,0.1-1.6,0.1-2.4,0.1C17.3,8,12.9,7.6,8.4,8.2C7.9,8.2,7.4,8.2,6.9,8C5.2,6.9,4.1,5.6,5.1,3.5c2.3-2.3,5-3.3,8.3-2.7
		C15,1.1,16.6,1.1,18,0z"/>
	<path fill="#883F3C" d="M6,4C5.4,5.3,6.2,6.1,7,6.9C7.6,12.5,8,18,8.3,23.6c-0.7,2.7-0.9,5.4-0.2,8.1c0.1,0.5,0.1,1,0,1.5
		c-0.9,1.4-1.4,3.1-2.9,4.1c-2-0.2-3.5-1.4-5.2-2.3c0-2.3,0-4.7,0-7c5.8-0.4,5.9-0.5,4.2-6.1c-0.8-2.7-1.5-5.1,0.2-7.8
		C6.5,10.8,3.2,7.4,4,4C4.7,3.5,5.3,3.5,6,4z"/>
	<path fill="#793834" d="M59,64c-4,0-8,0-12,0c-1.8-2-1-3.9,0.4-5.7c2.6-1.5,5.5-0.6,8.2-0.9c1.9-0.2,3.9-0.4,5.8-0.4
		c1-0.2,1.8,0.2,2.5,1c0,0.7,0,1.3,0,2C63.2,62.4,61.2,63.3,59,64z"/>
	<path fill="#763732" d="M28,64c-2.7,0-5.3,0-8,0c-2.3-1.9-4.7-1.6-7,0c-1,0-2,0-3,0c-1.3-0.9-3.2-1.6-2.4-3.6
		c1-2.5,3.7-2.1,5.8-2.8c4.2,0,8.3-0.4,12.5,0.3C27.9,59.4,29.1,61.3,28,64z"/>
	<path fill="#813B37" d="M64,30c0,4.3,0,8.7,0,13c-1.5,1.3-1.5,2.7,0,4c0,0.3,0,0.7,0,1c-1,1.4-1.2,2.9-1.2,4.6c0,2.1-1,3.5-3.4,2.1
		c-1.8-6.4-0.7-12.9-0.7-19.3C60.4,33.6,59.3,29,64,30z"/>
	<path fill="#793734" d="M13,59.1c-1.6,1.3-6.5,0.6-3,4.9c-1.3,0-2.7,0-4,0c-2.5-1-5.1-2-6-5c0-2.3,0-4.7,0-7
		c1.5-1.9,2.2-5.3,5.8-2.7c0.7,1,1.2,2.2,1.4,3.4c-0.1,1.6-2.3,3.8,1.2,4.6C10,57.7,12,57,13,59.1z"/>
	<path fill="#8D3F3C" d="M58.1,16c2.6,1.1,3.6-2.4,5.9-2c0,2.3,0,4.7,0,7c-2.1,2.6-0.9,6.7-4.2,8.7c-0.8,0.2-1.5,0.1-2.2-0.3
		c-0.4-0.4-0.7-0.8-0.9-1.3c-0.1-3.9-1-7.9,0.7-11.7C57.6,16.3,57.9,16.2,58.1,16z"/>
	<path fill="#92423F" d="M25,0c3.3,0,6.7,0,10,0c1.2,1,1.6,2.3,1.4,3.9C36.2,5,35.6,6,34.8,6.7c-0.7,0.5-1.5,0.6-2.3,0.6
		c-2-0.8-4.4-0.5-6-2.3C25.7,3.4,23.2,2.4,25,0z"/>
	<path fill="#7E3B37" d="M5,50c-2.4-1.1-3.2,1.8-5,2c0-3,0-6,0-9c3.6-4.4,3.7-4.4,6.3-0.4C6.3,45.1,7.4,47.9,5,50z"/>
	<path fill="#944542" d="M6,4C5.3,4,4.7,4,4,4C3,4,2,4,1,4c-1.4-3.1,1.8-2.8,3-4c4.7,0,9.3,0,14,0c-0.7,1-1.7,2.1-2.8,1.7
		C11.5,0.4,8.9,2.8,6,4z"/>
	<path fill="#8E423F" d="M60,29c-1.2-3.9,1.6-5.9,4-8c0,3,0,6,0,9c-2.5,0.7-1.8,4-4,5c-0.2-0.2-0.5-0.3-0.7-0.5
		C58.1,32.5,58.4,30.7,60,29z"/>
	<path fill="#833B38" d="M5,42c-2.1-2-3.1,1.8-5,1c0-2.7,0-5.3,0-8c1.2-0.5,2.3-1,3.5-1.5C4,34.7,4.5,35.8,5,37
		C6.7,38.7,6.7,40.3,5,42z"/>
	<path fill="#92433F" d="M39,0c3,0,6,0,9,0c1.5,3-1.4,3.5-2.7,5c-2,0.9-4.1,0.5-6.1,0.5c-0.8-0.1-1.6-0.3-2.2-0.9
		C35.5,2.1,37.7,1.3,39,0z"/>
	<path fill="#8C3F3C" d="M45,3c0.3-1.7,2.9-1.1,3-3c0.3,0,0.7,0,1,0c1,2.8,3.3,1.6,5.1,1.6c2,0,2.9,0.4,1.9,2.4
		C52.2,5.2,48.3,7.6,45,3z"/>
	<path fill="#783734" d="M61,55c1.1-2.3-0.4-5.7,3-7c0,3.3,0,6.7,0,10c-0.7,0.3-1.4,0.7-2.1,1c-1,0.8-1.9,0.4-2.4-0.4
		C58.6,56.9,60.1,56,61,55z"/>
	<path fill="#733631" d="M48,59c-0.3,1.7-0.7,3.3-1,5c-1.3,0-2.7,0-4,0c-1.1-1.4-2.5-2.5-2.7-4.4c0.1-0.5,0.4-1,0.8-1.4
		c0.5-0.3,1-0.5,1.5-0.6C44.6,57.6,46.7,57,48,59z"/>
	<path fill="#703331" d="M41,64c-2.3,0-4.7,0-7,0c-1.1-1.8-3.5-3.5-1-5.9c1.2-0.7,2.5-0.6,3.7-0.4c2.1,0.7,2.6,3,4.1,4.2
		C41.3,62.6,41.4,63.3,41,64z"/>
	<path fill="#7B3734" d="M13,64c0-2.8,2.1-2.3,3.8-2.5c2.1-0.3,3.1,0.5,3.2,2.5C17.7,64,15.3,64,13,64z"/>
	<path fill="#92433F" d="M25,0c0.7,1.7,1.3,3.3,2,5c-0.3,0.3-0.6,0.4-1,0c-3.4,0-2.6-3.4-4-5C23,0,24,0,25,0z"/>
	<path fill="#612E2B" d="M28,64c-0.7-1.6-1.4-3.3-2.1-4.9c0.7-1.2,1.9-1.4,3.2-1.2c0.6,0.2,1.1,0.5,1.5,0.9c1.3,2.3,0.6,4-1.6,5.3
		C28.7,64,28.3,64,28,64z"/>
	<path fill="#803E3A" d="M0,59c2.2,1.4,4.6,2.6,6,5c-1.3,0-2.7,0-4,0c-0.3-0.3-0.6-0.6-0.8-0.9C1,62.8,0.8,62.4,0.6,62
		c-0.1-0.4-0.3-0.7-0.6-1C0,60.3,0,59.7,0,59z"/>
	<path fill="#8A3D3B" d="M39,0c-0.7,1.3-1.3,2.6-2,4c-0.7,0.6-1.3,0.7-2,0c0-1.3,0-2.7,0-4C36.3,0,37.7,0,39,0z"/>
	<path fill="#7B3935" d="M64,47c-1.2,0.1-2.8,0.6-2.8-1.5c-0.1-1.9,1.3-2.4,2.8-2.5C64,44.3,64,45.7,64,47z"/>
	<path fill="#E6DAD9" d="M59,64c1.7-1.3,3.3-2.7,5-4C65.2,64.9,61.7,64,59,64z"/>
	<path fill="#6A302C" d="M41,64c-0.3-0.3-0.7-0.7-1-1c-1-1.5-0.4-2.4,1-3c1.9,0.7,2,2.4,2,4C42.3,64,41.7,64,41,64z"/>
	<path fill="#6C312D" d="M29,64c0.8-1.5,1-3.2,1-4.9c1.3-0.5,1.9,0.2,2.4,1.3c0.5,1.3,0.6,2.6-0.5,3.7C31,64,30,64,29,64z"/>
	<path fill="#FAF5F4" d="M64,4c-1.6-1.1-3.3-2-4-4C63.4-0.8,64.8,0.6,64,4z"/>
	<path fill="#EBDCDB" d="M4,0C3.8,2,0.4,1.5,1,4C0.7,4,0.3,4,0,4C-0.8,0.6,0.6-0.8,4,0z"/>
	<path fill="#5D2824" d="M32,64c0-1.3,0-2.7,0-4c-0.3-1,0.2-1.2,1-1c0.1,1.7,1.9,3.1,1,5C33.3,64,32.7,64,32,64z"/>
	<path fill="#8B3F3A" d="M0,23c2.4,1,1.3,2,0,3C0,25,0,24,0,23z"/>
	<path fill="#F5F1F1" d="M1.2,61.9c0.2,0.4,0.5,0.7,0.7,1.1c-0.2,0.3-0.5,0.5-0.9,0.5c-0.4,0-0.7-0.2-1-0.5c0-0.3,0-0.7,0-1
		C0.4,61.6,0.8,61.6,1.2,61.9z"/>
	<path fill="#EBE2E1" d="M1.2,61.9C0.8,61.9,0.4,62,0,62c0-0.3,0-0.7,0-1C0.4,61.3,0.8,61.6,1.2,61.9z"/>
	<path fill="#FEFEFE" d="M0,63c0.3,0,0.6,0,0.9,0.1c0.4,0.2,0.5,0.4,0.4,0.6C1.2,63.9,1.1,64,1,64C0.1,64.2-0.2,63.9,0,63z"/>
	<path fill="#F5F1F1" d="M1,64c0-0.3,0-0.6-0.1-0.9c0.3,0,0.6,0,0.9,0c0,0.3,0.1,0.7,0.1,1C1.7,64,1.3,64,1,64z"/>
	<path fill="#893F3B" d="M45,3c3.5,2.2,7.4-0.3,11,1c0.6,1,2.7,1.2,1.8,3.1c-0.4,0.4-0.9,0.7-1.4,0.9c-0.6,0.1-1.1,0.1-1.7,0
		c-4.4-0.7-8.8-0.4-13.2-0.5c-1.8,0-3.6,0.3-5.2-0.8C34.9,3.5,38.3,5.2,39,4C41,3.9,43.2,4.3,45,3z"/>
	<path fill="#B35F5D" d="M56.8,7.2c0.3,0,0.7,0,1,0c0.1,3,0.2,5.9,0.3,8.9c0,0-0.1,0.1-0.1,0.1c-0.6,0.2-1.1,0-1.6-0.3
		c-1.4-1.7-0.8-3.7-0.9-5.6C55.5,9,55.9,8,56.8,7.2z"/>
	<path fill="#873533" d="M59.4,9.5c1,1.4,1.3,2.6,0.3,4.2C58.7,12.3,58.9,11.1,59.4,9.5z"/>
	<path fill="#954745" d="M6.9,23.8C6.1,18.2,5.1,12.5,7,6.9c0.3,0,0.6,0,0.9,0.1c0.4,0.2,0.8,0.5,1.1,0.9c1.2,3-0.5,6.1,0.5,9.1
		c0,0.5,0.1,1,0.1,1.5c-0.1,1.7,0.3,3.5-0.6,5.2c-0.3,0.4-0.8,0.6-1.3,0.7C7.3,24.1,7.1,24,6.9,23.8z"/>
	<path fill="#E6948F" d="M22,6.8C22.7,6.9,23.3,7,24,7.2c0.6,0.7,0.7,1.4,0.5,2.3c-1,2-3,2.3-4.9,2.9c-1.2,0.1-2.3-0.1-3.1-1.1
		c-0.7-1.1-0.7-2.2-0.1-3.3C18.1,6.6,19.9,6.2,22,6.8z"/>
	<path fill="#974C48" d="M22,6.8c-1.6,0.3-3.3,0.5-4.9,0.8c-1.7,1.6-4,1.3-6.1,1.8c-0.8,0-1.5-0.1-2.1-0.5C8.4,8.6,8.1,8.2,8,7.7
		c0-0.3-0.1-0.5-0.1-0.8C12.5,5.4,17.3,5.6,22,6.8z"/>
	<path fill="#F9A09A" d="M24,9c0-0.6,0-1.2,0-1.8c0.7-0.1,1.3-0.2,2-0.3c1.2-0.9,2.6-1,4-0.8c0.9,0.3,1.5,0.9,1.6,1.8
		c0,1.3-0.5,2.3-1.6,3C27.6,11.5,25.2,12.2,24,9z"/>
	<path fill="#7C3431" d="M30,6.9c-1.3,0-2.7,0-4,0c0-0.6,0-1.3,0-1.9c0.3,0,0.6,0,1,0c1.9-1.1,3.6-1,4.9,1C31.6,6.9,30.6,6.5,30,6.9
		z"/>
	<path fill="#9D4F4A" d="M6.7,33.2c0.1-0.4,0.1-0.7,0.2-1.1c0.2-0.1,0.5-0.3,0.7-0.4c0.6,0.1,1,0.4,1.4,0.8c0.6,1,0.5,2.2,0.6,3.3
		c-0.3,4.9,0.7,9.9-0.6,14.7C8.5,51,8,51.3,7.4,51.5c-3.4-0.9-1.5-3.4-1.6-5.3c0.1-2.3,0.3-4.6-0.2-6.8C5.6,37.2,5,35.1,6.7,33.2z"
		/>
	<path fill="#6D2F2C" d="M6.9,46c-0.8,1.7-1.5,3.4-0.1,5.2c0.7,0.5,0.7,1.1,0.4,1.8c-0.4,0.3-0.8,0.3-1.2,0c-0.3-1-0.7-2-1-3
		c0-2.7,0-5.3,0-8c0-1.7,0-3.3,0-5c0.1-1.5-0.1-3.1,1.7-3.8C6.5,35.2,6.2,37.1,6,39C7.3,41.2,5.7,43.8,6.9,46z"/>
	<path fill="#9D4F4A" d="M6.8,32.1c-1.1-2.8-1.2-5.5,0.1-8.3C7,24,7.1,24.1,7.2,24.3C9,26.8,9,29.3,7.2,31.8L6.8,32.1z"/>
	<path fill="#76312F" d="M61,55c1.1,0.4,1.2,1,0.4,1.8c-1,1-0.7,1.7,0.5,2.2c-1.7,1.4-3.3,0.2-4.9,0c-0.4-0.4-0.7-0.8-1-1.2
		c-0.4-0.7-0.5-1.5-0.5-2.2c-0.3-1.7,0.8-3,1.1-4.5c1.3-4.2,0.7-8.6,0.9-12.9c0-1.1,0.1-2.2,1-3.1c0.5-0.4,1-0.4,1.5-0.1l0,0
		C60.5,41.6,59,48.4,61,55z"/>
	<path fill="#6C2E2B" d="M57,58c0,0.3,0,0.6,0,1c-3,0-6,0-9,0.1C46,59,44,59,41.9,59c-0.3-0.5-0.2-1.1,0.2-1.5
		c2.2-1.4,4.8-1.1,7.1-1.8C52,55.9,54.8,56.1,57,58z"/>
	<path fill="#612622" d="M29,59c-1,0-2,0-3,0.1c-4.3,0-8.6,0-12.9,0C11,59,9,59,7,59c-0.2-1.1,0.5-1.7,1.4-2.1
		c6.8-0.3,13.5-1.2,20.2,0.5C29.2,57.8,29.3,58.4,29,59z"/>
	<path fill="#763732" d="M8,58C7.7,58.3,7.4,58.6,7,59c-0.7,0.7-2.6,1.9-2.3,0.8c0.5-2.1-3.1-3-1-5C4.4,54.1,5.2,53.6,6,53
		c0.3,0,0.6,0,0.9-0.1c1.5,0.9,1.3,2.4,1.6,3.8C8.4,57.2,8.3,57.6,8,58z"/>
	<path fill="#914441" d="M57.2,16.1c0.3,0,0.6,0,0.9,0c0,4-0.1,8-0.1,12.1c-0.6,0.2-1.1,0.1-1.5-0.3c-1.1-1.1-0.8-2.5-0.9-3.8
		c0-2.1-0.1-4.2,0.2-6.3c0.1-0.5,0.4-1,0.8-1.3C56.7,16.3,57,16.2,57.2,16.1z"/>
	<path fill="#C16F6B" d="M57.2,27.9c0.2,0.1,0.5,0.2,0.7,0.3c0,0.3,0,0.6,0.1,0.8c0.4,0.4,0.6,0.9,0.8,1.4c0.6,2.5-0.6,4.9-0.3,7.3
		c0,0.8,0.1,1.7-0.4,2.4c-0.6,0.2-1.1,0.1-1.6-0.2c-1.1-1.2-0.9-2.6-1-4.1c0.1-2.3-0.3-4.6,0.4-6.9C56.2,28.4,56.7,28.1,57.2,27.9z"
		/>
	<path fill="#833333" d="M58.1,30C58,29.7,58,29.3,58,29c0.7,0,1.3,0,1.9,0c0,2,0,4,0,6c-0.3,0-0.7,0-1,0
		C57.8,33.5,59.1,31.5,58.1,30z"/>
	<path fill="#934541" d="M30,6.9c0.6-0.3,1.3-0.6,1.9-0.9c0.7,0,1.5,0,2.2,0c0.6-0.5,1.3-0.6,1.9,0C42.7,6.5,49.4,5,56,6.9
		c-0.2,0.5-0.6,0.9-1.1,1.2c-3.1,0.8-6.2,0.3-9.2,0.4c-0.5,0-1.1,0-1.6,0c-1.6,0-3.2,0-4.8,0c-1.5,0-3.1,0-4.6,0
		C33.5,8.4,32.1,9,31.1,8C30.7,7.6,30.4,7.2,30,6.9z"/>
	<path fill="#7F3734" d="M36,6c-0.6,0-1.3,0-1.9,0C34.4,5.3,34.7,4.7,35,4c0.7,0,1.3,0,2,0c0.7,0,1.3,0,2,0C38,4.7,37,5.3,36,6z"/>
	<path fill="#471B19" d="M29,59c0-0.3,0.1-0.6,0.1-0.9c1.7-2.5,4.3-1.3,6.5-1.6c1.7,0.1,3.5-0.2,5.1,0.4c0.5,0.3,0.9,0.7,1.2,1.2
		c0,0.3,0.1,0.5,0.1,0.8c-0.3,0-0.6,0-0.9,0c-1.3,1.2-2.7,0.9-4,0.1c-1.3,0-2.6,0-4,0c-0.3,0.3-0.7,0.6-1,1c-0.7-0.3-1.3-0.6-2-0.9
		C29.7,59.1,29.3,59,29,59z"/>
	<path fill="#5E2C29" d="M37,59c1.3,0,2.7,0,4-0.1c0,0.3,0,0.7,0,1c-0.3,1-0.7,2-1,3C38,62.4,37.8,60.5,37,59z"/>
	<path fill="#FCA8A3" d="M55,7.1C55.3,7,55.7,7,56,6.9c0.3,0.1,0.5,0.2,0.8,0.3c0,1,0.1,1.9,0.1,2.9c-0.7,0.8-0.4,2.4-1.9,2.5
		c-0.5,0-0.9-0.2-1.3-0.4c-1-0.7-2.3-0.7-3-1.8c-0.2-0.5-0.2-0.9-0.1-1.4C51.5,7.1,53.5,7.9,55,7.1z"/>
	<path fill="#FECCC7" d="M55.1,12.1c0.6-0.7,1.3-1.4,1.9-2c0.1,2,0.2,4,0.2,6L57,16C53.9,15.9,53.6,14.5,55.1,12.1z"/>
	<path fill="#FEBBB4" d="M8,23.9c0-2,0-3.9,0-5.9c0.4-0.6,0.7-1.3,1.6-1.4c0.5,0.1,1,0.3,1.3,0.7c0.3,0.5,0.5,0.9,0.5,1.5
		c0,2.4,0.6,4.8-0.6,7.1c-0.4,0.4-0.8,0.7-1.4,0.8c-0.6,0-1.1-0.1-1.5-0.5C7.5,25.4,7.4,24.6,8,23.9z"/>
	<path fill="#FECCCB" d="M8,7.7c0.3,0.1,0.7,0.2,1,0.4c1.5,1.3,1.6,2.9,1.4,4.7c-0.4,1.7-1.2,3.2-2.5,4.4C6.9,14,7.4,10.9,8,7.7z"/>
	<path fill="#F5A59F" d="M8,23.9c0.1,0.7,0.2,1.4,0.3,2.2c1.4,2.1,1.8,4.2-0.4,6.1c-0.2-0.1-0.5-0.2-0.7-0.3c0-2.5,0-5,0.1-7.6
		C7.5,24.2,7.7,24,8,23.9z"/>
	<path fill="#FECFCA" d="M7.9,17.2C8,15.7,8,14.2,9,13c1.3,1.3,1.1,2.6,0,3.9c-0.4,0.4-0.8,0.7-1.1,1.1C7.8,17.7,7.7,17.5,7.9,17.2z
		"/>
	<path fill="#DF9086" d="M10.9,7.8c2-1.1,4-1.2,6.1-0.2c0,1.1-0.1,2.1-0.1,3.2c-0.1,0.3-0.1,0.5-0.2,0.8c-0.7,1.3-1.7,1.9-3.2,1.9
		c-0.5,0-1-0.1-1.5-0.3c-0.5-0.2-0.8-0.6-1.1-1C10.3,10.6,9.7,9.2,10.9,7.8z"/>
	<path fill="#EA9995" d="M24,9c1.9,1,3.9,1,6,1c0.3,0.5,0.3,1-0.1,1.5c-0.8,0.9-1.9,1-3,1.2c-1.1,0.3-2.2,0.1-3.3-0.1
		c-1.4-0.3-2.9-0.3-3.6-1.9C21.3,10.2,22.7,9.6,24,9z"/>
	<path fill="#974744" d="M20,10.8c1.3,0.1,2.6,0.2,3.9,0.4c-2.9,3.8-4.3,3.8-6.8,0l-0.2-0.4C18,10.8,19,10.8,20,10.8z"/>
	<path fill="#F29B95" d="M10.9,7.8c0.3,1.3,0.6,2.6,0.9,4c0.5,2.2,0.2,4.1-1.9,5.3c-0.3,0-0.6-0.1-0.9-0.1c0-1.3,0-2.6,0-3.9
		C9,11.4,9,9.7,9,8.1C9.6,8,10.3,7.9,10.9,7.8z"/>
	<path fill="#FDBAB6" d="M30.1,10.8c0-0.3,0-0.5-0.1-0.8c0.4-0.7,0.7-1.4,1.1-2.1c1-0.3,1.7-1.2,2.9-0.8c1.7,1,3.6,1,5.4,0.4
		c1.2,0,2.4-0.2,3.6,0.2c0.4,0.4,0.6,0.8,0.6,1.3c-0.2,1.4-1.1,2.2-2.2,3c-0.7,0.3-1.4,0.4-2.2,0.4c-2.3-0.9-4.7,0.4-7,0
		c-0.5-0.1-0.9-0.2-1.4-0.4C30.5,11.7,30.2,11.3,30.1,10.8z"/>
	<path fill="#FEA099" d="M7.8,51.1c0-5.4,0.1-10.7,0.1-16.1c0.6-0.6,1.4-0.8,2.2-0.7c4,2,1.6,5.6,2.2,8.5c-0.8,2.1-1.8,4.1-1.9,6.4
		c-0.2,1.1-0.7,1.9-1.9,2.1C8.3,51.2,8,51.2,7.8,51.1z"/>
	<path fill="#FEC8C5" d="M10,35c-0.7,0-1.4,0-2.1,0c0-0.9,0-1.9,0-2.8c0.1-2,0.2-4.1,0.4-6.1C8.5,26,8.7,26,9,26
		c1,0.9,1.5,1.9,1.6,3.2c0.1,1.7,0.9,3.2,1,4.9C11.2,34.9,10.9,35.4,10,35z"/>
	<path fill="#813C39" d="M7.7,57.1c-1.5-1.1-1.5-2.6-0.8-4.1c0-0.6,0-1.2,0-1.8c0.3,0,0.6-0.1,0.9-0.1L8.1,51c0.6,0.4,1.1,1,1.3,1.8
		C9.5,54,9.8,55.2,9,56.3C8.6,56.7,8.2,56.9,7.7,57.1z"/>
	<path fill="#813C39" d="M6.9,46c-1.4-2.2-0.8-4.6-0.9-7C7.4,41.2,6.9,43.6,6.9,46z"/>
	<path fill="#FEA097" d="M58,52c-0.3,1.3-0.7,2.6-1,3.9c-2.6,2.4-5.7,0.1-8.5,0.9c-1.4,0.3-2.8,0.3-4.2-0.1c-2.5-2.9-0.8-4.4,2-5
		c1.7-0.4,3.5-0.2,5.2-1c1.2-0.6,2.3-1.8,3.9-1.7c0.9,0,1.7,0.4,2.3,1.1c0.3,0.3,0.5,0.6,0.7,1C58.4,51.4,58.3,51.7,58,52z"/>
	<path fill="#783734" d="M48.2,56.2c2.9-0.1,5.9-0.2,8.8-0.3c0,0.7,0,1.4,0,2.1c-2.7,0.1-5.4-0.3-8-0.9c-0.4,0.3-0.7,0.4-1.2,0.1
		C47.6,56.8,47.7,56.4,48.2,56.2z"/>
	<path fill="#83403B" d="M58,52c-0.1-0.3-0.2-0.5-0.1-0.8c-1.9-3.8-2.2-7.6,0-11.3c0.1-0.6,0.1-1.2,0.2-1.9c0.1-0.2,0.2-0.5,0.3-0.7
		c0.2,0.2,0.3,0.4,0.5,0.6C58.6,42.6,60,47.4,58,52z"/>
	<path fill="#994846" d="M58.9,37.9c-0.3,0-0.5,0.1-0.8,0.1c0-2.7,0-5.4,0-8c1.1,1.5,0.9,3.3,0.9,5C59,36,58.9,36.9,58.9,37.9z"/>
	<path fill="#763532" d="M47.9,56.9c0.4,0,0.8,0.1,1.1,0.1c-2.3,1.4-4.8,0.7-7.2,1.1c-0.3,0-0.5,0-0.8-0.1c-0.2-0.6-0.1-1.1,0.4-1.5
		C43.6,55.9,45.8,56.4,47.9,56.9z"/>
	<path fill="#8E4642" d="M36,57.8c-2.3,0.1-4.7,0.2-7,0.3C22,58.1,15,58,8,58c-0.1-0.3-0.2-0.6-0.3-0.9c0,0,0.4-0.1,0.4-0.1
		c4.5-2.9,9.4-0.8,14.1-1.4c3.4,0.1,6.7-0.1,10-0.9c0.8-0.1,1.6-0.1,2.4,0.1c0.8,0.3,1.3,0.8,1.7,1.6C36.4,56.9,36.4,57.4,36,57.8z"
		/>
	<path fill="#E99390" d="M57.2,27.9c-0.1,0.4-0.2,0.9-0.4,1.3c-0.7,1.3,0,2.7-0.6,4.1c-0.6,1.4-1.4,2.6-3.1,2.5
		c-0.5-0.1-0.9-0.3-1.3-0.6c-1-1.4-3-1.5-4.1-2.8c-0.2-0.5-0.2-0.9-0.2-1.4c0.2-0.4,0.5-0.8,0.8-1.1c0.8-0.4,1.6-0.7,2.2-1.4
		c1.9-1.6,1.9-5.2,5.3-5.2c0.4,0.2,0.8,0.4,1.1,0.7C57,25.3,57.1,26.6,57.2,27.9z"/>
	<path fill="#F2A8A3" d="M55.1,12.1c0.1,1.6,0.4,3,1.9,3.9c0,0.3-0.1,0.7-0.1,1c-0.7,1.1-1,2.6-2.8,2.2c-1.5-0.8-1.5-2.2-1.5-3.6
		c0.3-1.8-0.7-4.3,2.5-4.6C55,11.4,55,11.7,55.1,12.1z"/>
	<path fill="#FAA4A0" d="M55,19c0.6-0.6,1.3-1.3,1.9-1.9c0,2.3,0,4.6,0,7c-0.3,0-0.7,0-1,0c-0.4-0.3-0.7-0.6-1-1
		c-0.2-0.4-0.3-0.9-0.4-1.3C54.5,20.7,54.7,19.9,55,19z"/>
	<path fill="#974C47" d="M57.9,39.9c0,3.8,0,7.5,0,11.3c-0.2-0.1-0.5-0.3-0.7-0.5c-0.9-0.8-1.3-1.8-1.6-2.9
		c-0.1-1.4-0.8-2.7-0.5-4.2c0.5-1.3,0.5-2.9,2.1-3.6C57.4,40,57.7,40,57.9,39.9z"/>
	<path fill="#FEB2AA" d="M57.2,40.1c-0.1,1.3-0.1,2.6-0.2,3.9c-1,0.3-1.6-0.3-2.1-1c-0.5-2.2-0.9-4.5,0.4-6.6c0.4-0.5,1-0.6,1.5-0.3
		C57,37.3,57.1,38.7,57.2,40.1z"/>
	<path fill="#FEBEBA" d="M56.9,36c-0.3,0-0.5,0-0.8,0c-1-0.9-0.7-1.9-0.2-3c0.3-1.3,0.6-2.6,1-3.8C56.9,31.5,56.9,33.7,56.9,36z"/>
	<path fill="#FEC4BA" d="M55,7.1C53.7,7.8,52.3,8.4,51,9c-0.4,0.3-0.8,0.6-1.4,0.7C48,9.2,45.3,10.4,45,7.1
		C48.3,7.1,51.7,7.1,55,7.1z"/>
	<path fill="#E89793" d="M39.1,8c-2,1.4-3.7,1-5.1-0.8c1.7,0,3.4,0,5.1-0.1c0.4,0.2,0.5,0.4,0.4,0.6C39.3,7.9,39.2,8,39.1,8z"/>
	<path fill="#FDACA5" d="M45,7.1c1.7,0.6,3.3,1.2,5,1.9c-2.4,1.7-4.7,2.8-7.1,0c0-0.3,0-0.7,0.1-1c0.2-0.4,0.5-0.7,0.9-0.8
		C44.3,7.2,44.7,7.1,45,7.1z"/>
	<path fill="#FECABC" d="M44,7.2C43.6,7.4,43.3,7.7,43,8c-1.3,0-2.6,0-3.9,0c0-0.3,0-0.6,0-0.9C40.7,7.1,42.3,7.1,44,7.2z"/>
	<path fill="#98504C" d="M36,57.8c0-0.3,0-0.5,0-0.8c1.1-1.7,2.6-1.6,4.2-1c0.5,0.3,0.7,0.7,0.8,1.3c0,0.2,0,0.5,0,0.7
		C39.4,58,37.7,57.9,36,57.8z"/>
	<path fill="#FEBAB5" d="M42.9,9c2.4,0,4.7,0,7.1,0c0.3,0,0.7,0,1,0c0,0.3,0,0.7,0,1c0.3,0.6,0.2,1.1-0.2,1.6
		c-0.7,0.6-1.5,0.8-2.4,0.8c-2.5-0.4-5.4,1.1-7.4-1.7C41.6,10.2,42.3,9.6,42.9,9z"/>
	<path fill="#ED9994" d="M50.9,10.8c0-0.3,0-0.5,0.1-0.8c1.4-0.1,3.2-1.4,4,1c-1.1,1.5-0.9,3.3-1,5c-0.3,0.3-0.8,0.5-1.2,0.3
		c-0.4-0.2-0.7-0.5-1-0.9c-0.2-0.4-0.3-0.9-0.4-1.3C51,13,50.7,12,50.9,10.8z"/>
	<path fill="#D98684" d="M9.9,17.1c0.1-2,0.7-3.8,1.9-5.3c0,0,0.2,0.3,0.2,0.3c2.3,1.9,1.3,5,2.5,7.3c0.3,0.4,0.5,0.9,0.6,1.3
		c0.1,0.5,0.1,1,0.1,1.5c-0.1,0.5-0.3,0.9-0.4,1.4c-1.2,2.1-0.8,4.8-2.5,6.7c-0.5,0.2-1,0.2-1.5,0.1c-1.2-0.9-1.5-2-1.1-3.4
		c1.4-3,0.9-6,0.4-9C10,17.7,10,17.4,9.9,17.1z"/>
	<path fill="#F5A59F" d="M10.1,17.9c1.4,3,1.4,6.1,0.1,9.2c-0.6-0.3-0.6-0.7-0.2-1.1C10,23.3,10,20.6,10.1,17.9z"/>
	<path fill="#FEB9B7" d="M9.9,26c0.1,0.4,0.1,0.7,0.2,1.1c0.3,0.9,0.6,1.9,1,2.8c0.2,0.5,0,1-0.5,1.1c-0.8,0.2-1.1-0.4-1.5-1
		C9,28.7,9,27.4,9,26C9.3,26,9.6,26,9.9,26z"/>
	<path fill="#904441" d="M17.1,11.2c2.3,1.2,4.5,1.1,6.8,0c1,0,2.1,0,3.1-0.1c2.6,2.4,2.5,4.2-1,5.4c-3.5,2.5-8,1.5-11.7,3.2
		c-0.7,0.3-1.5-0.4-1.8-1.3c0.2-2.1-0.5-4.3,0.4-6.4C14.4,11.8,15.7,11.5,17.1,11.2z"/>
	<path fill="#732422" d="M13,12c0.1,2.3,0.1,4.6,0.2,6.9c0.4,0.7,0.4,1.3-0.2,1.9c-2.2-2.7-0.7-5.9-0.9-8.8C12.4,12,12.7,12,13,12z"
		/>
	<path fill="#863736" d="M25,15c3-0.1,2.4-2,2-3.9c1-0.1,2-0.2,3-0.3c0.3,0.1,0.6,0.2,1,0.4c3.1,1.6,5.6,4.1,7.5,7
		c-0.1,0.8-0.4,1.4-1.1,1.8c-1.8,0.7-3.9,0.5-5.7,1.2c-0.5,0.1-1,0.2-1.4,0.2c-0.7,0-1.5,0-2.2-0.2c-0.5-0.2-0.9-0.4-1.3-0.7
		c-0.9-0.8-1.3-2-2-3C24.5,16.7,24.3,15.8,25,15z"/>
	<path fill="#893B39" d="M38.4,18.2c-4-0.7-7.7-1.7-7.3-7c0.3-0.1,0.6-0.2,0.9-0.3c1.2-0.6,2.5-0.3,3.7-0.3
		c4.4,1.3,8.8,1.2,13.3,0.6c0.7-0.1,1.3-0.2,2-0.4c1.1,0.8,2.4,1.5,2,3.2c-3.5,3.1-7.3,0.9-10.4,0.6c0.5,0.1,1.4,0.3,2,1.2
		c0.4,1,0.3,1.9-0.4,2.7c-0.7,0.8-1.7,0.8-2.7,0.9c-0.5,0-0.9,0-1.4-0.1C39.3,19.2,38.7,18.8,38.4,18.2z"/>
	<path fill="#9D4E4B" d="M49,11.2c-4.3,1.1-8.7,1.6-13,0c0.9-1.1,2-0.7,3.1-0.3c0.7,0,1.3-0.1,2-0.1C43.7,10.9,46.3,11,49,11.2z"/>
	<path fill="#E89793" d="M39,10.9C38,11,37,11.1,36,11.2c-1.3-0.1-2.7-0.2-4-0.4C34.3,9.7,36.7,9.7,39,10.9z"/>
	<path fill="#E6847D" d="M10,35c0.2-0.3,0.5-0.7,0.7-1c0.4-0.4,1-0.5,1.6-0.5c0.9,0.2,1.4,0.9,1.7,1.8c0.6,5.4-0.6,10.7-0.9,16
		c-0.3,0.5-0.8,0.8-1.3,1c-2.3-0.8-1.5-2.8-1.7-4.4c0.1-1.7-0.3-3.4,0.9-4.9C9.1,40.5,11.8,37.5,10,35z"/>
	<path fill="#FE9E96" d="M10.9,48c0.2,1.3,0.4,2.7,0.7,4c1,0.4,0.9,1.1,0.5,1.9c-1.8,1.4-2.9,0.3-4-1c0-0.7,0-1.3,0-2
		c0.3-0.7,0.6-1.3,0.9-2C9.5,48.5,9.8,47.4,10.9,48z"/>
	<path fill="#FE9B8F" d="M10.9,48C10.3,48.4,9.6,48.7,9,49c0.2-2.1-0.8-4.7,1.9-6C10.9,44.7,10.9,46.4,10.9,48z"/>
	<path fill="#F39F9B" d="M12.3,33.6c-0.6,0.1-1.1,0.2-1.7,0.3c-1.3-1-1.6-2.4-1.6-3.9c0.7-0.1,1.3-0.1,2-0.2c0.3,0,0.5,0.1,0.8,0.1
		c1,0.2,1.5,0.8,1.8,1.7c0,0.4,0,0.9-0.2,1.3C13.1,33.4,12.8,33.6,12.3,33.6z"/>
	<path fill="#E28079" d="M8.1,53c1.3,0.3,2.6,0.7,3.9,1c0.2,0,0.5,0,0.7,0c2.5,0.4,5.1,0.5,7.6,0.5c1,0,1.9,0.1,2.7,0.9
		c0.3,0.4,0.3,0.9,0.1,1.4c-5,0-9.9,0.1-14.9,0.1C8.1,55.6,8.1,54.3,8.1,53z"/>
	<path fill="#CE6D67" d="M12,54c-0.1-0.6-0.3-1.3-0.4-1.9c0.2-0.1,0.3-0.1,0.5-0.1c0.4-0.4,0.9-0.8,1.4-1.1
		c4.1-0.8,8.3-0.2,12.5-0.4c4.4,0,8.8,0,13.2,0c1.1,0,2.1,0,3.2,0.3c2.6,0.9-0.2,3.9,1.9,5c1.3,0.1,2.6,0.2,4,0.3
		c-0.1,0.3-0.2,0.5-0.3,0.8c-2.3,0.1-4.6,0.3-6.9,0.4c0-0.2-0.1-0.4-0.1-0.6c-0.8-0.4-1.7-0.7-2.6-1c-1.9-1-3.9-1.6-6.1-1.2
		c-1.5,0.1-3,0.8-4.5,0.3c-1.8-0.3-3.7-0.4-5.5-0.4c-2.1,0-4.3-0.1-6.4,0.4C14.4,55,13.1,55.1,12,54L12,54z"/>
	<path fill="#DF7F78" d="M44.2,55.9c-2.4-0.6-2.9-1.8-1.2-3.7c2.7-2.9,6-1.5,9.1-1.2c0.5,0.3,0.9,0.8,1.1,1.3c-1.4,1.6-3.2,1.3-5,1
		C46.2,53.1,44.5,53.4,44.2,55.9z"/>
	<path fill="#D77872" d="M55.9,49.9c-1.3,0.4-2.1,1.4-2.7,2.5c-0.1-0.1-0.2-0.3-0.3-0.4c-0.7-0.4-1.4-0.7-1.7-1.5
		C50.8,49,51.6,48,52.6,47c1.5-1.1,2.9-1.3,3.9,0.7C56.5,48.5,56.6,49.3,55.9,49.9z"/>
	<path fill="#FEB0A6" d="M55.9,49.9c0.1-0.6,0.2-1.2,0.2-1.7c0.2-0.6,0.4-0.6,0.7,0c0.1,0.9,0.2,1.8,0.3,2.6
		c-0.2,0.2-0.4,0.5-0.6,0.7C56.4,50.9,56.1,50.4,55.9,49.9z"/>
	<path fill="#E57A76" d="M27.9,53c1.8,0.1,3.5,0.1,5.3,0.2c1,1,0.3,2-0.1,3c-3.3,1.5-6.8,0.6-10.2,0.6c0-0.2,0-0.5,0-0.7
		c0.3-1,1.1-1.4,2-1.5C26.2,54.4,27.1,53.9,27.9,53z"/>
	<path fill="#FEA59C" d="M33.1,56.2c-0.8-1-0.1-2,0.1-3c2.2-0.2,4.1,0.4,5.9,1.7c-0.8,2.7-2.7,1.4-4.3,1.2
		C34.3,56.1,33.7,56.2,33.1,56.2z"/>
	<path fill="#F38A83" d="M34.9,56.1c1.5-0.2,3-0.1,4.3-1.2c0.6,0.6,1.2,1.2,1.8,1.8c-1.6,0.1-3.3,0.2-4.9,0.2
		C35.6,56.7,35.2,56.4,34.9,56.1z"/>
	<path fill="#934543" d="M49,30.8c-0.3,0.1-0.7,0.2-1,0.3c-1.5,1.3-3,1.1-4.3-0.3c-1.7-4,1.8-5.6,3.6-7.9c0.4-0.3,0.9-0.5,1.4-0.5
		c1.5,0.2,2.7,1.2,3.9,1.9c0.5,0.6,0.6,1.3,0.8,2c0,0.9,0.1,1.9-0.1,2.8C52.3,30.6,50.1,29.5,49,30.8z"/>
	<path fill="#F89891" d="M55.9,33c0.1,1,0.1,2,0.2,3c0,2.3-0.1,4.7-0.1,7c-1.2,0.8-2.4,1.2-3.6,0.1c-0.4-0.4-0.6-0.9-0.7-1.4
		c-0.1-0.8-0.1-1.6-0.1-2.4c0.1-1.6-0.3-3.4,1.7-4.3C54.1,34.3,55,33.7,55.9,33z"/>
	<path fill="#F3A39B" d="M48,32c1.9,0.1,4-0.4,4.9,2.1c-0.9,1-1.7,2.2-3.3,2.3c-1.4,0.1-2.9,0.3-4-0.9c-0.3-0.5-0.5-1-0.6-1.7
		C45.4,32.1,46,31,48,32z"/>
	<path fill="#FEBCB8" d="M48,32c-1.1,0.4-1.9,1.1-2.2,2.3c-1.2,1-2.4,0.5-3.6-0.1c-1.3-0.9-2.8-1.6-2.8-3.6c0.4-1.2,1.2-1.7,2.4-1.8
		c0.9,0,1.6,0.3,2.1,1c1.1,1,2.5,1.2,3.9,1.3C48,31.4,48,31.7,48,32z"/>
	<path fill="#C5726E" d="M52.9,29c0-1.1,0-2.1,0-3.2c-0.5-1-0.9-2.1,0-3.1c1.1-0.7,2.1-0.6,3,0.3c0,0.3,0,0.6,0,0.9
		c-3,1.4-0.7,5.7-3.8,7.1C51.1,30,52.3,29.6,52.9,29z"/>
	<path fill="#62211E" d="M50.1,35.1c0.9-0.5,1.7-1.4,2.9-1.1c0,0.3,0.1,0.6,0.3,0.9c-0.1,1.6-0.2,3.3-0.4,4.9
		c-0.7,0.4-1.3,0.1-1.9-0.4c-0.4-0.6-0.6-1.2-0.9-1.8C49.7,36.9,49.4,36,50.1,35.1z"/>
	<path fill="#813936" d="M52.9,29c-0.2,0.7-0.5,1.4-0.7,2c-1.1-0.1-2.1-0.2-3.2-0.3C49.2,27.8,51.5,29.4,52.9,29z"/>
	<path fill="#EE9A95" d="M53.2,16c0.3,0,0.5,0,0.8,0c0.3,1,0.7,2,1,3c0.3,1,0.7,2,1,3.1c-2,1.1-3-0.4-4-1.7
		c-0.2-0.5-0.3-1.1-0.3-1.6C51.7,17.5,52,16.5,53.2,16z"/>
	<path fill="#DB8783" d="M53,19.8c0.8,0.9,1.6,1.9,2.9,2.3c0,0.4-0.1,0.7-0.1,1.1C54.9,23,54,23,53.1,23c-0.4-0.3-0.7-0.7-0.9-1.2
		C52.2,21,52.4,20.3,53,19.8z"/>
	<path fill="#F28A83" d="M53.2,43c0.9-0.5,1.8-0.4,2.8,0c0.3,0.3,0.7,0.6,1,0.9c0,1.4-0.1,2.8-0.1,4.1c-0.2,0-0.5,0-0.7,0
		c-0.9-1-1.9-0.8-3-0.2c-0.2-0.2-0.5-0.3-0.7-0.5C51.4,45.8,51.3,44.2,53.2,43z"/>
	<path fill="#924441" d="M44,16c-1.4-0.5-2.8-0.9-4.6-1.5c4.8-1.4,9.2-0.1,13.6-0.5c0,0.3,0,0.7,0,1C49.9,19.4,47.6,19.7,44,16z"/>
	<path fill="#8F403D" d="M44,16c3.2,1.8,6.1,0.7,8.9-1c0.1,0.3,0.2,0.7,0.3,1c-0.1,1-0.1,2-0.2,3c-1.7,1.8-3.9,1.4-6,1.4
		c-1.7-0.3-3.9,0.4-4-2.5C43.3,17.3,43.7,16.7,44,16z"/>
	<path fill="#F5A099" d="M14.1,21.8c0-0.2,0-0.4,0-0.5c1.1-2.1,2.8-2.9,5.1-2.7c1.9,0.1,3.8-0.3,5.5-1.3c2-0.2,2.7,1.2,3.4,2.7l0,0
		c1.4,2.2,0.6,3.7-1.3,5.1c-0.5,0.2-1.1,0.3-1.6,0.4c-2.3,0.3-4.4-0.5-6.6-0.8C16.6,24.4,14.3,24.6,14.1,21.8z"/>
	<path fill="#8D403D" d="M25.1,18c-1.1,2.5-3.4,2.1-5.4,2.1c-2,0-3.8,0.7-5.6,1.2c-0.4-0.1-0.7-0.2-1.1-0.4c0.1-0.6,0.1-1.3,0.2-1.9
		c3.7-2.1,8-2.3,11.9-3.9c0.3,0.6,0.7,1.3,1,1.9C26,17.5,25.2,17.5,25.1,18z"/>
	<path fill="#8B3D3A" d="M14.1,21.8c1.4,1.5,3.3,0.9,4.9,1.2c0.4,0.4,0.7,0.7,1,1.1c0.6,1,0.7,1.9-0.2,2.8c-2.4,0.3-4.6,2.3-7.3,0.8
		c0-1.9-0.5-3.8,0.4-5.6C13.3,22,13.7,21.9,14.1,21.8z"/>
	<path fill="#6F2321" d="M13,22.1c0,2,0.1,3.9,0.1,5.9c0.3,0.3,0.6,0.6,0.9,0.9c0.3,0.6,0.4,1.2,0.3,1.9c-0.1,0.4-0.4,0.8-0.7,1.1
		c-0.2,0.1-0.4,0.2-0.6,0.3c-1.1-0.3-1-1.3-1.2-2.2C12.2,27.4,11.1,24.5,13,22.1z"/>
	<path fill="#F7A39B" d="M49,23.2c-0.4,0-0.7,0-1.1,0c-0.2,0-0.4,0.1-0.7,0.1c-1.8,0.3-3.2,1.8-5,2.1c-1.5,0.5-2.9,0.1-4.4-0.1
		c-0.5-0.1-1-0.3-1.4-0.6c-1.8-0.9-3.7-1-5.6-1.4c-2-0.4-3-1.5-0.9-3.2c0.4-0.1,0.7-0.3,1.1-0.4c1.3-0.5,2.7-0.2,4-0.3
		c1.9,0.8,3.3-0.4,4.8-1.1c0.3-0.1,0.7-0.2,1-0.3c1.9,1.5,4.1,1.5,6.4,1.4c1.6,0.3,3.8-0.9,4.4,1.8c-0.1,0.8-0.5,1.5-1.2,1.9
		C50,23.5,49.5,23.5,49,23.2z"/>
	<path fill="#F3938B" d="M30,20.2c-0.2,2.2,1.5,1.7,2.7,1.8c1.8,0.2,3.7-0.3,5.2,1.1c-0.3,0.3-0.7,0.6-1.1,0.9
		c-1.1,0.6-2.3,0.4-3.4,0.5c-0.7,0-1.4,0.1-2,0.3C30,24.9,29,26.1,27.5,26c-1-0.2-1.8-0.7-1.8-1.8c1.4-1.1,2-2.6,2.3-4.2
		C28.7,20,29.3,20.1,30,20.2z"/>
	<path fill="#F39992" d="M39.9,18.4c-0.9,1.5-1.8,3.1-4,1.8c0-0.8,0.7-0.8,1.2-1.1c0.4-0.3,0.8-0.6,1.2-0.9
		C38.9,18.2,39.4,18.3,39.9,18.4z"/>
	<path fill="#F3938B" d="M25.1,18c-0.5-1.1,0.6-0.6,0.9-1c1.7,0.3,2.1,1.5,2.1,3C27.1,19.3,26.1,18.6,25.1,18z"/>
	<path fill="#904441" d="M37.2,19.1c-0.4,0.4-0.8,0.7-1.2,1.1c-1.6-0.1-3.3-0.3-4.9-0.4C33,18.7,35.1,19.1,37.2,19.1z"/>
	<path fill="#924441" d="M46.7,19.9c-1.9-0.7-4.7,1.6-5.8-1.8c0.7-0.7,1.3-0.7,2-0.1c1.3,1,2.8,1,4.4,1.2
		C47.3,19.6,47.1,19.8,46.7,19.9z"/>
	<path fill="#5B1F1C" d="M13,51.9L12.6,52c0,0-0.5,0-0.5,0c0.5-5.7-1.4-11.6,1-17.2c0.2,0.2,0.5,0.3,0.7,0.5
		c1.5,1.7,1.3,3.7,1.2,5.7c0.1,2.2-0.5,4.4-0.3,6.6c0.1,1.1,0,2.2-0.6,3.1C13.8,51.1,13.4,51.5,13,51.9z"/>
	<path fill="#FEB3AC" d="M12.3,33.6c0.2-0.2,0.4-0.4,0.6-0.6c1.7-1.7,3.8-1.8,5.9-1.1c0.9,0.4,1.4,1.2,1.6,2.1
		c0,0.7-0.2,1.2-0.7,1.7C17.3,37.7,15,37.3,13,35c0,0,0.1-0.2,0.1-0.2C12.8,34.4,12.6,34,12.3,33.6z"/>
	<path fill="#EF9590" d="M19,32.9c-2,0.1-4.1,0.1-6.1,0.2c0-0.3,0.1-0.6,0.1-0.9l-0.1-0.4c1.8-1.4,3.7-1.7,5.7-0.5
		C19.2,31.8,19.3,32.3,19,32.9z"/>
	<path fill="#F6938B" d="M12,54c1.3,0,2.6-0.1,4-0.1c1.3-0.6,2.7-0.4,4-0.1c0.6,0.7,0.6,1.5,0.1,2.2C17.3,55.4,14,57.4,12,54z"/>
	<path fill="#FEAB9D" d="M20,56c0-0.6,0-1.2,0.1-1.9c0.6-0.7,1.3-0.6,2.1-0.6c1.6,0.2,3.9-0.6,3.7,2.4c-1,0-1.9,0.1-2.8,0.1
		C22,56,21,56,20,56z"/>
	<path fill="#542120" d="M40,51.9c-4.7,0-9.3-0.1-14-0.1c-0.3-0.6-0.1-1.2,0.4-1.6c4.5-0.7,8.9-2.3,13.4,0
		C40.2,50.8,40.3,51.3,40,51.9z"/>
	<path fill="#4B1916" d="M26,51.1c0,0.3,0,0.5,0,0.8c-4.3,0-8.6,0-13,0c0-0.3,0-0.6,0-0.9c1.5-1.9,3.7-1.5,5.7-1.5
		c2,0.1,4.1-0.7,6,0.4C25.3,50.1,25.7,50.5,26,51.1z"/>
	<path fill="#4C1816" d="M40,51.9c0-0.3,0-0.6,0-0.9c1.6-2.5,4.4-1.3,6.5-2.1c1.2-0.2,2.3,0.4,3.4,0.7c0.8,0.3,1.5,0.8,2.2,1.4
		c0.3,0.3,0.6,0.6,0.9,0.9c-3.3,0.1-6.6,0.2-9.9,0.3C42,52.1,41,52,40,51.9z"/>
	<path fill="#F6938B" d="M25.9,55.9c-0.9-1.5-2.3-1.9-3.9-2c-0.7-0.4-0.6-0.7,0.1-0.8c2,0,3.9,0,5.9-0.1
		C27.8,54.4,27.2,55.4,25.9,55.9z"/>
	<path fill="#E28079" d="M22.1,53.1C22,53.4,22,53.7,21.9,54c-0.6,0-1.2,0.1-1.9,0.1c-1.4-0.1-2.7-0.2-4.1-0.2
		C17.9,52.7,20,53.1,22.1,53.1z"/>
	<path fill="#6E342F" d="M52,51c-0.7,0-1.4,0-2.1-0.1c-1.9-1.7-3.5-3.6-4.5-6c-0.2-0.5-0.4-0.9-0.3-1.5c0.6-1.9,1.7-3.2,3.8-3.5
		c1.3,0.3,2.6,0.7,3.3,1.9c0.6,2-0.3,4.2,0.6,6.1l0.3-0.1C52.6,48.9,51.7,49.7,52,51z"/>
	<path fill="#893D3A" d="M38,23.9c1.7,1,2.8-0.5,4-1.1c2-0.5,4-0.2,6,0L48,23.1c-0.1,2.9-2.7,4.4-3.9,6.6c-0.6,0.1-1.3,0.1-1.9,0.2
		c-1.2-1.1-3.4-0.8-4.2-2.5C37.5,26.2,37,25.1,38,23.9z"/>
	<path fill="#722A28" d="M49.9,22.9c0.3-0.4,0.7-0.7,1-1.1c0.8-0.4,1.5-0.5,1.9,0.5c-0.1,0.2,0,0.4,0.2,0.6c-0.1,1-0.1,1.9-0.2,2.9
		c-0.3-0.3-0.6-0.6-0.9-0.9C51.1,24.5,49.2,25,49.9,22.9z"/>
	<path fill="#893D3A" d="M49.9,22.9c0.7,0.7,1.4,1.4,2,2.1c-1.9,0.8-2.9,0.2-2.9-1.9C49.3,23.1,49.6,23,49.9,22.9z"/>
	<path fill="#7C3934" d="M52,42c-1-0.3-2-0.7-3-1c-0.8-3.3,0.6-3.3,2.9-2c0.3,0.3,0.7,0.6,1,1c0,0.7,0,1.4,0,2.1
		C52.5,42.7,52.3,42.7,52,42z"/>
	<path fill="#682A28" d="M52,42c0.3,0,0.6,0,0.8,0c0.1,0.3,0.2,0.6,0.4,1c-0.1,1.7-0.2,3.4-0.3,5C51.7,46.1,52.1,44,52,42z"/>
	<path fill="#7C3934" d="M50.1,35.1c0.6,0.6,1.3,1.3,1.9,1.9c-1.5,1.5-3.7,1.9-5.1,3.7c-1.1,1.5-2.6,0.9-3.7-0.3
		c-0.4-0.7-0.5-1.5-0.5-2.2c0-0.8,0.1-1.6,0.6-2.2C43.9,35,45,35,46,35C47.4,35,48.7,35.1,50.1,35.1z"/>
	<path fill="#6B2A29" d="M46,35c-0.7,0.3-1.4,0.7-2,1c-0.6,0.6-1.3,0.6-2,0.3c-0.3-0.4-0.6-0.8-0.6-1.3c0.1-1.1,0.7-1.8,1.8-2.1
		c0.9,0.5,1.9,1,2.8,1.4C45.8,34.5,45.9,34.8,46,35z"/>
	<path fill="#E99A96" d="M39,26.8c1.4,0.7,2.5,1.7,3.1,3.1c-0.7,0.3-1.4,0.5-2.1,0.8c0.5,0.4,0.5,0.9,0.1,1.4
		c-1.6,0.7-2.6-0.2-3.5-1.4c-0.9-1.3-1-2.6,0.1-3.8C37.4,26.4,38.2,26.3,39,26.8z"/>
	<path fill="#7B3533" d="M39.9,31.6c0-0.3,0.1-0.6,0.1-0.8c1,0.7,2,1.4,3.1,2.1c-0.4,0.7-0.7,1.5-1.1,2.2c-0.9,0.6-1.7,0.5-2.4-0.2
		C38.9,33.7,38.9,32.6,39.9,31.6z"/>
	<path fill="#7C3A35" d="M44,40c3-0.1,4.9-3,8-3c0,0.7,0,1.3,0,2c-1.6-0.2-2.3,0.8-2.9,2c-1,1-2,2-3,2.9c-0.4,0.3-0.8,0.4-1.3,0.4
		c-1.3-0.7-2.2-1.8-2.9-3C41.8,39.7,42.4,39.1,44,40z"/>
	<path fill="#E79790" d="M52.9,22.3c-0.6-0.2-1.3-0.3-1.9-0.5c-0.8-2-2.7-1.7-4.2-2c0.2-0.2,0.4-0.4,0.6-0.7
		c1.9-0.1,3.8-0.1,5.7-0.2c0,0.2,0,0.5,0,0.7C53,20.6,53,21.5,52.9,22.3z"/>
	<path fill="#7F3735" d="M25.7,24.2c0.7,0.2,1.4,0.4,2.1,0.7c1.2-0.3,2.3-1.9,3.8-0.6c0.4,0.7,0.5,1.4,0.2,2.1
		c-0.7,1.4-2,2.1-3.4,2.9c-1.5,0.3-2.9,0.8-4.3,1.1c-4.5-1-2.3-3.4-1.1-5.6c0.6-0.6,1.2-0.7,2-0.8C25.2,24.1,25.5,24.1,25.7,24.2z"
		/>
	<path fill="#68201E" d="M25,24c-0.3,0.3-0.7,0.7-1,1c-1.9,0.9-3.5,0.2-5-1.1c0-0.3,0-0.6,0-0.9C21,23.3,23.3,21.8,25,24z"/>
	<path fill="#893D3A" d="M19,23.9c1.7,0.2,3.5-0.1,5,1.1c1.6,1.3-2.2,2.9,0.3,4.1c0.2,0.5,0.2,1-0.1,1.5c-0.7,0.9-1.5,1.5-2.6,1.7
		c-1.1,0.2-2-0.5-3.1-0.8c-1.8-0.3-3.8,0.5-5.5-0.6c0-0.7,0-1.3,0.1-2c1.8-2.3,5.3-0.4,6.9-3C19.7,25.3,19.3,24.6,19,23.9z"/>
	<path fill="#924342" d="M20,26c0.8,1.9,0,2.9-1.9,2.9c-1.7,0.1-3.3,0-5,0c0-0.3,0-0.7,0-1C14.9,25.7,17.5,26,20,26z"/>
	<path fill="#722B27" d="M13,31c2.1,0,4.1,0.1,6.2,0.1c0.2,0.4,0.1,0.6-0.2,0.8c-2,0-4,0-6,0C13,31.5,13,31.3,13,31z"/>
	<path fill="#ED9B95" d="M48,22.8c-2,0.7-4,0.3-6,0C44,21.8,46,21.7,48,22.8z"/>
	<path fill="#7D3633" d="M39,26.8c-0.7,0-1.3,0.1-2,0.1c-0.2,0-0.4,0-0.6,0c-0.4-0.2-0.7-0.4-0.9-0.8c-0.1-0.4-0.2-0.8-0.1-1.2
		c0.3-0.8,1.1-1.2,1.6-1.8c0.3,0,0.7,0,1,0c0,0.3,0.1,0.6,0,0.9C38.3,24.9,38.7,25.8,39,26.8z"/>
	<path fill="#9E4344" d="M36,25c0,0.3,0,0.6,0,0.8c-0.8,1.7-2.3,1.6-3.8,1.3c-0.7-0.3-1.2-0.8-1.4-1.6c0-0.6,0-1.2,0-1.8
		c-0.3-0.2-0.4-0.4-0.3-0.5c0.1-0.2,0.2-0.2,0.3-0.2c0.7,0,1.5,0,2.2,0C34,23.8,35.7,23.3,36,25z"/>
	<path fill="#421514" d="M36,25c-1-0.6-1.9-1.3-2.9-1.9c1.3,0,2.6,0,3.9,0C36.6,23.7,36.3,24.4,36,25z"/>
	<path fill="#4C100E" d="M30.9,23.1c0,0.3,0,0.5,0,0.8c-1,0.5-1.7,1.8-3.1,0.9C27.9,22.6,29.4,22.8,30.9,23.1z"/>
	<path fill="#813C37" d="M13,35c2.3,0,4.5-0.1,6.8-0.1c1-0.5,1.6,0.1,2,0.9c0.6,1.5-0.2,2.8-0.4,4.2c-3,3.6-5.1,3.9-8.3,1.1
		C13.1,39,13,37,13,35z"/>
	<path fill="#763531" d="M13.1,41c2.8,0.8,5.3,0.8,6.9-2.1c0.5-0.3,1-0.3,1.4,0.1c0.6,0.6,0.8,1.3,0.8,2c0,1-0.6,1.8-1.2,2.6
		c-0.6,0.7-1.4,1.1-2.1,1.7c-0.3,0.3-0.6,0.6-1,0.9c-0.5,0.4-0.9,0.9-1.4,1.4c-1.1,1.1-2.2,1.7-3.5,0.4C13.1,45.7,13.1,43.3,13.1,41
		z"/>
	<path fill="#7B3733" d="M13.1,48c1-0.7,1.9-1.3,2.9-2c2.3,0.9,4.6,1.7,3,4.9c-2,0-4,0.1-6,0.1C13,50,13.1,49,13.1,48z"/>
	<path fill="#EB9893" d="M19,31.9c0.1-0.3,0.2-0.5,0.2-0.8c0.9,0,1.9-0.1,2.8-0.1c1,0.1,2,0.2,2.4,1.3c0,1.5-1,2.2-2.3,2.5
		c-0.8-0.1-1.5-0.3-2.1-0.8c-0.3-0.4-0.6-0.8-1-1.1C19,32.5,19,32.2,19,31.9z"/>
	<path fill="#6A2A28" d="M20,34c0.6,0,1.2-0.1,1.8-0.1c1.8-0.6,3.5-1.1,3.7,1.7c-0.2,0.6-0.6,1-1.1,1.3c-1.2,0.5-2.3,0.4-3.3-0.5
		c-0.5-0.5-0.9-1.1-1.4-1.6C19.8,34.6,19.9,34.3,20,34z"/>
	<path fill="#6F3230" d="M47,50.9c-2.3,0.1-4.6,0.1-7,0.2c-4.7,0-9.4,0-14.1,0c-0.3,0-0.6-0.1-1-0.1c-1.1-1.7,0.4-2.9,0.8-4.4
		c1.4-1.9,3.1-0.8,4.8-0.6c1.4,0,1.5-1,1.6-2.1c0.1-2.1-0.2-4.3,2.2-5.5c0.5-0.1,1-0.1,1.4,0c1.4,0.9,3.1,1,4.3,2.3
		c1,1.5,1.7,3.1,3.2,4.3c0.3,0.3,0.7,0.6,1,0.9C45.4,47.4,48.1,48.1,47,50.9z"/>
	<path fill="#753531" d="M27,47c-0.7,1.3-1.3,2.6-2,3.9c-2,0-4,0-6,0c-1-1.6-2-3.3-3-4.9c0.3-0.3,0.6-0.7,1-1
		c1.1-0.2,2.2,0.2,3.2,0.3c1.1,0.3,2.2-0.2,3.3,0C24.8,45.6,26.2,45.7,27,47z"/>
	<path fill="#7C3A35" d="M47,50.9c-1.1-2-4-1.8-4.9-4c1.2-1.5,3.1-1.7,4.6-2.7c2.5,1.5,4.1,3.5,3.3,6.7C49,50.9,48,50.9,47,50.9z"/>
	<path fill="#E27F7A" d="M46.6,44.2c-0.7,2.3-2.1,3.3-4.6,2.7C42,46.6,42,46.3,42,46c-0.4-1.1,0-1.9,0.9-2.5
		c0.8-0.3,1.5-0.1,2.1,0.3c0.3,0,0.7,0.1,1,0.1C46.2,44.1,46.4,44.2,46.6,44.2z"/>
	<path fill="#612220" d="M39.1,42.2c-1.3-0.8-2.6-1.6-3.8-2.4c1.2-1.4,3-1.8,4.5-2.8c1.6-0.4,3.1-0.2,4.3,1c0,0.6,0,1.3,0,1.9
		c-0.6,0.1-1.2,0.2-1.1,1c0.5,1.5-0.6,1.7-1.7,1.9C40.5,42.9,39.8,42.5,39.1,42.2z"/>
	<path fill="#F8948E" d="M44,38.1c-1.4,0.2-3-0.8-4,0.8c-0.7,0.8-1.4,0.6-2.2,0.2c-0.9-1.5-0.4-2.6,1-3.5c1.1-0.3,2.2-0.1,3.3,0.3
		c0.7,0.1,1.3,0.1,2,0.2C44,36.7,44,37.4,44,38.1z"/>
	<path fill="#4F1F1C" d="M42,35.8c-1,0.1-2,0.2-3,0.3c-1,0.5-2.1,0.9-3.1,0c-0.2-0.6-0.1-1.1,0.3-1.6c1.4-1,2.7-0.6,3.9,0.4
		c0.7,0,1.3,0.1,2,0.1C42,35.3,42,35.6,42,35.8z"/>
	<path fill="#723330" d="M36,34.9c0,0.3,0,0.6,0,1c-0.2,0.4-0.6,0.8-1,1c-0.7,0.2-1.4,0.1-2.1-0.2c-1.2-0.9-0.7-2.7-2-3.5
		c-0.4-0.5-0.9-1.1-1.2-1.7c-0.2-0.7-0.5-1.3-0.6-2c0-0.5,0.2-0.9,0.4-1.3c0.9-0.9,2.1-1,3.3-1c1.4,0.2,2.8-0.5,4.1,0l0-0.1
		c-0.7,1.3,0.5,2.1,0.8,3.1C38,32,38.6,34,36,34.9z"/>
	<path fill="#733230" d="M36,34.9c0.6-1.6,1.2-3.2,1.8-4.9c0.7,0.5,1.4,1,2.1,1.5c0,1.1,0.1,2.3,0.1,3.4C38.7,35,37.3,34.9,36,34.9z
		"/>
	<path fill="#7C3934" d="M40.9,42.1c0.7-0.4,1.4-0.7,2.1-1.1c1.1,0.6,1.8,1.5,2.1,2.8c-0.7,0.1-1.4,0.3-2.1,0.4
		C41.4,44.3,40.7,43.6,40.9,42.1z"/>
	<path fill="#F7A29E" d="M24.1,30.1c0-0.3,0.1-0.6,0.2-0.9c1.2-0.4,2.4-0.8,3.5-1.2c1.2-0.6,1.6,0.2,1.9,1.1l0.5,0
		c0,2.1-1.4,3-2.9,4c-0.8,0.2-1.5,0.1-2.2-0.3C24.4,32,24,31.1,24.1,30.1z"/>
	<path fill="#FEBFB9" d="M29.8,29c-0.6-0.4-1.3-0.7-1.9-1.1c1-0.7,2.1-1.5,3.1-2.2c0.7,0.2,1.4,0.3,2,0.5c0.6,0.6,0.6,1.2,0,1.8
		C31.9,28.2,30.5,27.7,29.8,29z"/>
	<path fill="#FEC1B8" d="M24.1,30.1c0.3,0.6,0.6,1.2,0.9,1.8l-0.3,0.4l-0.5-0.1c-0.7-0.4-1.5-0.8-2.2-1.2
		C22.7,30.7,23.4,30.4,24.1,30.1z"/>
	<path fill="#D17471" d="M32.9,27.9c0-0.6,0-1.2,0-1.8c1-0.8,2-0.2,3.1-0.2c0.3,0.4,0.7,0.8,1,1.1C35.9,28.3,34.4,28.1,32.9,27.9z"
		/>
	<path fill="#F59C95" d="M21.1,36.5c1-0.1,2-0.2,2.9-0.3c1.3,0.3,3.3-0.5,3.4,1.9c-0.2,0.8-0.6,1.4-1.3,1.9
		c-0.7,0.3-1.5,0.4-2.3,0.4c-1.1,0-2-0.5-2.9-1.1c-0.3-0.1-0.6-0.3-0.9-0.4C19.8,37.8,20.4,37.2,21.1,36.5z"/>
	<path fill="#692F2B" d="M27,47c-1.4,0.2-2.8,0.6-4.1-0.1c-0.4-1-1-1.8-1.9-2.5c-0.5-0.4-0.8-0.9-0.9-1.6c0.3-0.6,0.6-1.3,1-1.9
		c1-0.9,2.3-1.1,3.6-1.4c1.9,0.1,3.6-1.4,5.5-0.5c0.5,0.3,0.9,0.6,1.2,1.1c0.8,1.2,0.9,2.6,1.1,3.9c0,1.8-0.7,3.2-2.3,3.9
		C28.6,48.9,28.2,46.6,27,47z"/>
	<path fill="#EE8681" d="M20,47.8C19,46.9,18,45.9,17,45c0.1-0.2,0.2-0.5,0.1-0.8c0.8-1.3,2.1-0.5,3.2-0.7
		C22.9,45.1,20.5,46.4,20,47.8z"/>
	<path fill="#813C37" d="M24.2,39.8c-0.9,0.8-2,1.1-3.2,1.2c0-0.6,0-1.1,0-1.7c1,0,2.1-0.1,3.1-0.1C24.1,39.4,24.2,39.6,24.2,39.8z"
		/>
	<path fill="#914944" d="M21,44.2c-1.3-0.2-2.6-0.5-3.9,0.1c0.6-1.2,1.8-1.2,3-1.4c0.7,0.1,1.4,0.2,2.2,0.3
		C22.1,43.9,21.8,44.3,21,44.2z"/>
	<path fill="#7C3735" d="M24.2,32.2c0.3,0,0.5-0.1,0.7-0.3c0.5,0,0.9,0,1.4,0c3.8-0.9,4,1.1,3.2,3.9c-1.5,1.4-3,1-4.5,0
		c-0.5-1.5-1.8-1.8-3.2-2C22.6,33.3,23.4,32.7,24.2,32.2z"/>
	<path fill="#EE8881" d="M25,35.9c1.4,0,2.7,0,4.1,0c0.4-0.3,0.7-0.6,1.2-0.8c0.7-0.3,1.4-0.3,2.1-0.1c0.4,0.3,0.8,0.6,1.1,0.9
		c0.5,0.1,1.1,0.2,1.6,0.3c0.3,1.4-0.7,1.7-1.6,2.1c-0.9,0.4-1.8,0.9-2.9,0.8c-1.2-0.2-2.6,0.2-3.5-1.1c-1-0.6-2-1.2-2.9-1.8
		C24.4,36.1,24.7,36,25,35.9z"/>
	<path fill="#A45450" d="M30.7,44.2c-0.7-1-0.6-2.2-0.5-3.4c0.2-0.6,0.3-1.2,0.7-1.7c0.8-0.6,1.6-1.5,2.7-1.6c1.1,0,2.4-0.4,2.6,1.3
		c-0.2,0.5-0.6,0.6-1.1,0.5c-1.6,1.3-0.4,3.3-1.1,4.8C33,44.8,31.8,45.2,30.7,44.2z"/>
	<path fill="#964C47" d="M30.7,44.2c1.1,0,2.3-0.1,3.4-0.1c-0.2,2.5,0.6,6.1-4.1,3.9C30.2,46.7,30.4,45.4,30.7,44.2z"/>
	<path fill="#F69B93" d="M40.9,42.1c0.7,0.7,1.4,1.4,2,2.1c-0.3,0.6-0.6,1.2-0.9,1.8c-1.9-0.6-2-2.5-2.9-3.8
		C39.7,42.2,40.3,42.1,40.9,42.1z"/>
	<path fill="#451513" d="M35.2,39.2c0.3-0.1,0.6-0.2,0.9-0.4c0.6-0.5,1.3-0.5,2,0c0.7,0,1.3,0,2,0.1c-1.4,1.2-3.1,1.2-4.7,0.9
		C35.2,39.6,35.2,39.4,35.2,39.2z"/>
	<path fill="#F5998E" d="M21,44.2c0.4-0.3,0.8-0.7,1.2-1c0.9,0,2.3-0.6,2.7,0.3c0.7,1.7-1.8,2-2,3.4c-0.9,0.3-1.9,0.6-2.8,0.9
		C19.7,46.4,19.7,45.1,21,44.2z"/>
	<path fill="#F4827D" d="M38,38.8c-0.7,0-1.3,0-2,0c-0.8-0.9-1.9-0.8-3-0.7c-0.3-0.3-0.4-0.5-0.3-0.8C32.9,37.1,33,37,33,37
		c0.6-0.3,1.3-0.6,1.9-0.9c0.4-0.1,0.7-0.2,1.1-0.2c1,0.1,2,0.2,2.9,0.3C38.7,37.1,38.3,38,38,38.8z"/>
	<path fill="#581C1B" d="M30,35.8l-0.5,0.1L29,35.9c0-1.9-0.5-3.5-2.7-4c1.3-1,2.6-1.9,3.9-2.9c0.2,0.7,0.5,1.3,0.7,2
		C31.1,32.7,31.8,34.5,30,35.8z"/>
	<path fill="#DE7974" d="M33.4,35.8c-0.6,0-1.1,0-1.7,0c-1.2-1.4-2.3-2.9,0.3-4C35.1,32.2,33.7,34.2,33.4,35.8z"/>
	<path fill="#753431" d="M32,31.8c-2.2,1.2-0.6,2.7-0.3,4c-0.6,0-1.2,0-1.7,0c-0.1-1.7-0.3-3.4,1-4.9C31.3,31.2,31.6,31.5,32,31.8z"
		/>
	<path fill="#CC6A66" d="M31,39.9c-0.3,0.3-0.5,0.6-0.8,0.9c-0.1-0.3-0.2-0.6-0.3-0.9c-1.1-1.1-3,0.3-4-1.2c0.4-0.3,0.7-0.6,1.1-0.9
		c1.3,0.1,2.6,0.1,3.8,0.2C31.6,38.6,31.6,39.3,31,39.9z"/>
	<path fill="#481513" d="M25.9,38.8c1.3,0.6,3.1-0.6,4,1.2c-1.9-0.1-3.8-0.1-5.7-0.2c0-0.2-0.1-0.4-0.1-0.6
		C24.7,39.1,25.3,38.9,25.9,38.8z"/>
	<path fill="#FE9A96" d="M31,39.9c-0.1-0.6-0.1-1.2-0.2-1.8c0.7-0.4,1.5-0.8,2.2-1.1c0,0.4,0,0.8,0.1,1.2
		C32.4,38.8,31.7,39.3,31,39.9z"/>
</g>
</svg>
